# xmcd
# 
# Track frame offsets:
#     150
#     7947
#     20032
#     35805
#     59805
#     78675
#     96790
#     118087
#     141597
#     154530
#     166542
#     187580
#     203712
#     219145
#     240405
#     259202
#     278077
#     298395
#     316222
# 
# Disc length: 4670
# 
# Revision: 5
# Processed by: cddbd v1.5.2PL0 Copyright (c) Steve Scherf et al.
# Submitted via: fre:ac v1.1beta1pre5
# 
DISCID=0d123c13
DTITLE=Joe Cocker - The Anthology (1964-70) Disk 1
DYEAR=1999
DGENRE=Britpop
TTITLE0=I'll Cry Instead
TTITLE1=Marjorine
TTITLE2=Bye Bye Blackbird
TTITLE3=Just Like A Woman
TTITLE4=Feelin' Alright
TTITLE5=Do I Still Figure In Your Life
TTITLE6=Don't Let Me Be Misunderstood
TTITLE7=With A Little Help From My Friends
TTITLE8=Delta Lady
TTITLE9=She Came In Through The Bathroom Window
TTITLE10=Hitchcock Railway
TTITLE11=Something
TTITLE12=Dear Landlord
TTITLE13=Darling Be Home Soon
TTITLE14=The Letter
TTITLE15=Space Captain
TTITLE16=Honky Tonk Women
TTITLE17=Cry Me A River
TTITLE18=Let's Go Get Stoned
EXTD=YEAR: 1999
EXTT0=
EXTT1=
EXTT2=
EXTT3=
EXTT4=
EXTT5=
EXTT6=
EXTT7=
EXTT8=
EXTT9=
EXTT10=
EXTT11=
EXTT12=
EXTT13=
EXTT14=
EXTT15=
EXTT16=
EXTT17=
EXTT18=
PLAYORDER=
